<?xml version="1.0" encoding="utf-8"?>
<!-- Generator: Adobe Illustrator 21.0.2, SVG Export Plug-In . SVG Version: 6.00 Build 0)  -->
<svg version="1.1" id="Layer_1" xmlns="http://www.w3.org/2000/svg" xmlns:xlink="http://www.w3.org/1999/xlink" x="0px" y="0px"
	 viewBox="0 0 792 310" style="enable-background:new 0 0 792 310;" xml:space="preserve">
<style type="text/css">
	.st0{fill:#00437B;}
</style>
<g>
	<g>
		<path class="st0" d="M278,49.6c0.6,0,1.8-0.2,2.2-0.3c0.7-0.3,0.9-0.8,0.9-1.5V32.3c0-0.7-0.2-1.2-0.9-1.5
			c-0.7-0.3-1.5-0.5-2.1-0.5v-0.7h10c4.2,0,11.4,2.2,11.4,10.4c0,7-6,10.2-12,10.2H278V49.6z M294.8,40c0-5.5-2.9-9.5-7.4-9.5
			c-0.6,0-1.7,0-2.3,0.1v16.6c0.1,1.4,0.9,2.2,2.9,2.2C292.8,49.3,294.8,45.5,294.8,40z"/>
		<path class="st0" d="M320.5,45.5c-0.3-2.8-0.9-5.2-4.1-5.2h-1.8v7.4c0,0.7,0.2,1.2,0.9,1.5c0.4,0.2,1.6,0.4,2.2,0.4v0.7h-10.3
			v-0.7c0.5,0,1.8-0.2,2.2-0.4c0.7-0.3,0.9-0.8,0.9-1.5V32.3c0-0.7-0.2-1.2-0.9-1.5c-0.5-0.2-1.7-0.4-2.2-0.5v-0.7h10.8
			c3.8,0,7.1,1.4,7.1,4.7c0,3.3-3.1,4.7-5.6,5.3v0.2c1.5,0.2,3.9,0.9,4.5,3.1c0.5,1.7,0.6,3,1,4.4c0.3,1.2,0.9,1.4,1.4,1.4
			c0.8,0,1.4-0.9,1.4-2.7c0,0,0-0.6,0-0.6h0.8l0,0.7c0,2.7-1.1,4.4-4.1,4.4C322.2,50.6,320.9,49.1,320.5,45.5z M315.9,39.4
			c2.7,0,4.9-1.1,4.9-4.5c0-3.3-1.8-4.4-4.3-4.4h-1.9v8.9H315.9z"/>
		<path class="st0" d="M335.7,49.6c0.5-0.1,1.9-0.2,2.4-0.4c0.7-0.3,0.9-0.8,0.9-1.5V32.3c0-0.7-0.2-1.2-0.9-1.5
			c-0.6-0.2-1.8-0.5-2.4-0.6v-0.7h17.2v5H352c-0.4-1.4-2-3.8-3.4-4c-0.7-0.1-1.5-0.1-2.5-0.1H343v8.6h2.3c1.7,0,2.2-0.5,2.6-0.9
			c0.5-0.5,0.9-2,1-2.8h0.8v8.5h-0.8c-0.1-0.9-0.6-2.5-1-3c-0.4-0.5-1-0.9-2.6-0.9H343v6.7c0,2.4,0.5,2.7,3.4,2.7c1.9,0,4,0,4.7-0.7
			c1.1-1.1,2.2-3.5,2.6-4.4h0.8l-0.4,6h-18.4V49.6z"/>
		<path class="st0" d="M377.8,31.5c0-0.8-1.3-1.1-2.9-1.2v-0.7h8.5v0.7c-0.7,0.1-1.5,0.2-2.1,0.5c-1.2,0.5-1.9,1.3-2.6,2.1
			c-1.7,2-3.3,4.2-4.7,5.9c1.5,2.1,4.9,7.2,5.7,8.2c0.6,0.8,1.2,1.6,2.2,2.2c0.4,0.2,1.5,0.4,2.2,0.4v0.7h-11.8v-0.7
			c1.8-0.1,3.1-0.4,3.1-1.2c0-0.8-2-3.7-4.3-6.9c-1.3,1.6-4.8,5.9-4.8,6.9c0,0.8,1.3,1.1,2.9,1.2v0.7h-8.5v-0.7
			c0.7-0.1,1.5-0.2,2.1-0.5c1.2-0.5,1.9-1.3,2.6-2.1c1.9-2.2,3.7-4.7,5.1-6.4c-1.9-2.8-4-5.7-5.3-7.7c-0.7-1-1.1-1.6-2.2-2.1
			c-0.5-0.2-1.4-0.4-2.2-0.5v-0.7h11.8v0.7c-1.8,0.1-3.1,0.4-3.1,1.2c0,1.1,2.5,4.5,3.8,6.3C375,35.9,377.8,32.3,377.8,31.5z"/>
		<path class="st0" d="M390.9,49.6c0.5-0.1,1.9-0.2,2.4-0.4c0.7-0.3,0.9-0.8,0.9-1.5V32.3c0-0.7-0.2-1.2-0.9-1.5
			c-0.6-0.2-1.8-0.5-2.4-0.6v-0.7H408v5h-0.8c-0.4-1.4-2-3.8-3.4-4c-0.7-0.1-1.5-0.1-2.5-0.1h-3.2v8.6h2.3c1.7,0,2.2-0.5,2.6-0.9
			c0.5-0.5,0.9-2,1-2.8h0.8v8.5h-0.8c-0.1-0.9-0.6-2.5-1-3c-0.4-0.5-1-0.9-2.6-0.9h-2.3v6.7c0,2.4,0.5,2.7,3.4,2.7
			c1.9,0,4,0,4.7-0.7c1.1-1.1,2.2-3.5,2.6-4.4h0.8l-0.4,6h-18.4V49.6z"/>
		<path class="st0" d="M417.2,49.6c0.5-0.1,1.8-0.2,2.2-0.4c0.7-0.3,0.9-0.8,0.9-1.5V32.3c0-0.7-0.2-1.2-0.9-1.5
			c-0.5-0.2-1.7-0.5-2.2-0.6v-0.7h10.3v0.7c-0.5,0.1-1.6,0.2-2.2,0.4c-0.8,0.2-0.9,0.8-0.9,1.5v14.5c0,2.5,0.4,2.7,3.4,2.7
			c1.6,0,3.5-0.1,4.1-0.8c0.9-0.9,2.3-3.3,2.7-4.5h0.7l-0.4,6.2h-17.8V49.6z"/>
		<path class="st0" d="M457.8,44.1V32.3c0-0.7-0.2-1.1-0.9-1.5c-0.5-0.3-1.6-0.5-2.1-0.5v-0.7H465v0.7c-0.5,0.1-1.6,0.2-2.1,0.4
			c-0.8,0.2-0.9,0.8-0.9,1.5v11.7c0,3.1,1.1,5.5,5.2,5.5c4.1,0,5.6-2.8,5.6-5.6v-8.4c0-2.4-0.4-3.6-1-4.1c-0.6-0.5-2.3-0.9-3-0.9
			v-0.7h8.9v0.7c-0.5,0.1-2.1,0.3-2.8,0.8c-0.8,0.5-1,1.9-1,4.1v8.8c0,4.9-4.1,6.9-7.7,6.9C460.7,50.7,457.8,47.8,457.8,44.1z"/>
		<path class="st0" d="M488.9,33.8v10.7c0,2.3,0.4,3.6,1,4.1c0.5,0.4,2.4,0.9,3,1v0.7H484v-0.7c0.5-0.1,2.3-0.5,2.8-0.8
			c0.7-0.5,1-1.8,1-4.1V34c0-0.9-0.3-1.8-0.9-2.4c-0.7-0.6-2.1-1.2-3.1-1.4v-0.7h6.8l11.8,15v-9.3c0-2.2-0.4-3.6-1-4.1
			c-0.5-0.4-2.4-0.9-3-0.9v-0.7h8.9v0.7c-0.5,0.1-2.2,0.4-2.8,0.8c-0.7,0.5-1,2-1,4.1v15.2h-1.5L488.9,33.8z"/>
		<path class="st0" d="M514.2,49.6c0.5,0,1.8-0.2,2.2-0.3c0.7-0.3,0.9-0.8,0.9-1.4V32.3c0-0.7-0.2-1.1-0.9-1.4
			c-0.5-0.2-1.6-0.5-2.2-0.6v-0.7h10.2v0.7c-0.5,0.1-1.7,0.2-2.2,0.4c-0.7,0.2-0.9,0.8-0.9,1.4v15.5c0,0.7,0.2,1.1,0.9,1.4
			c0.4,0.2,1.7,0.4,2.2,0.5v0.7h-10.2V49.6z"/>
		<path class="st0" d="M534.1,32.5c-0.3-0.8-0.6-1.2-1.3-1.7c-0.5-0.3-1.3-0.5-2-0.6v-0.7h10.2v0.7c-1.7,0.2-2.9,0.5-2.9,1.1
			c0,0.2,0.1,0.5,0.2,0.8c0.3,1,2.9,8.4,4.8,13.5c1.4-3.2,3.3-7.9,3.8-9.4c0.8-2.1,1.4-3.5,1.4-4.5c0-0.9-2-1.4-3.4-1.5v-0.7h8.2
			v0.7c-0.6,0-1.4,0.3-2,0.6c-0.8,0.5-1.2,1.4-1.7,2.4c-0.9,2.2-5.4,12.9-7.2,17.2h-1.6C538.4,44.5,534.8,34.6,534.1,32.5z"/>
		<path class="st0" d="M558.9,49.6c0.5-0.1,1.9-0.2,2.4-0.4c0.7-0.3,0.9-0.8,0.9-1.5V32.3c0-0.7-0.2-1.2-0.9-1.5
			c-0.6-0.2-1.8-0.5-2.4-0.6v-0.7h17.2v5h-0.8c-0.4-1.4-2-3.8-3.4-4c-0.7-0.1-1.5-0.1-2.5-0.1h-3.2v8.6h2.3c1.7,0,2.2-0.5,2.6-0.9
			c0.5-0.5,0.9-2,1-2.8h0.8v8.5h-0.8c-0.1-0.9-0.6-2.5-1-3c-0.4-0.5-1-0.9-2.6-0.9h-2.3v6.7c0,2.4,0.5,2.7,3.4,2.7
			c1.9,0,4,0,4.7-0.7c1.1-1.1,2.2-3.5,2.6-4.4h0.8l-0.4,6h-18.4V49.6z"/>
		<path class="st0" d="M598.2,45.5c-0.3-2.8-0.9-5.2-4.1-5.2h-1.8v7.4c0,0.7,0.2,1.2,0.9,1.5c0.4,0.2,1.6,0.4,2.2,0.4v0.7h-10.3
			v-0.7c0.5,0,1.8-0.2,2.2-0.4c0.7-0.3,0.9-0.8,0.9-1.5V32.3c0-0.7-0.2-1.2-0.9-1.5c-0.5-0.2-1.7-0.4-2.2-0.5v-0.7h10.8
			c3.8,0,7.1,1.4,7.1,4.7c0,3.3-3.1,4.7-5.6,5.3v0.2c1.5,0.2,3.9,0.9,4.5,3.1c0.5,1.7,0.6,3,1,4.4c0.3,1.2,0.9,1.4,1.4,1.4
			c0.8,0,1.4-0.9,1.4-2.7c0,0,0-0.6,0-0.6h0.8l0,0.7c0,2.7-1.1,4.4-4.1,4.4C599.9,50.6,598.6,49.1,598.2,45.5z M593.6,39.4
			c2.7,0,4.9-1.1,4.9-4.5c0-3.3-1.8-4.4-4.3-4.4h-1.9v8.9H593.6z"/>
		<path class="st0" d="M615.9,49.1l-1,1.4h-1l-0.2-7.3h0.7c1.2,3.1,3.4,6.5,6.9,6.5c2.5,0,3.8-1.6,3.8-3.7c0-1.8-1.1-3-3.1-3.8
			c-1.5-0.6-2.7-1-4.1-1.6c-2.4-1.1-3.6-3-3.6-5.6c0-3.2,2.6-5.8,6.5-5.8c1.9,0,3.7,0.7,4.8,1.4l0.9-1.3h1.1l0.1,7h-0.7
			c-1.4-3.8-3.1-6.2-6.3-6.2c-1.5,0-3.1,1.1-3.1,3.2c0,1.8,1,2.9,2.9,3.7c1.4,0.6,2.8,1.1,4,1.6c2.5,1.1,4.1,2.4,4.1,5.6
			c0,3.7-3,6.4-7.2,6.4C618.5,50.6,616.9,49.8,615.9,49.1z"/>
		<path class="st0" d="M636.6,49.6c0.5,0,1.8-0.2,2.2-0.3c0.7-0.3,0.9-0.8,0.9-1.4V32.3c0-0.7-0.2-1.1-0.9-1.4
			c-0.5-0.2-1.6-0.5-2.2-0.6v-0.7h10.2v0.7c-0.5,0.1-1.7,0.2-2.2,0.4c-0.7,0.2-0.9,0.8-0.9,1.4v15.5c0,0.7,0.2,1.1,0.9,1.4
			c0.4,0.2,1.7,0.4,2.2,0.5v0.7h-10.2V49.6z"/>
		<path class="st0" d="M658.2,49.6c0.5,0,2.1-0.2,2.4-0.4c0.7-0.3,0.9-0.8,0.9-1.5V30.5h-1.1c-0.7,0-1.6,0-2.3,0.1
			c-1.3,0.2-2.9,3.1-3.3,4.4h-0.8v-5.4H673V35h-0.8c-0.4-1.3-2-4.2-3.3-4.4c-0.7-0.1-1.5-0.1-2.3-0.1h-1.1v17c0,0.7,0.2,1.2,0.9,1.5
			c0.4,0.2,1.9,0.5,2.4,0.5v0.7h-10.8V49.6z"/>
		<path class="st0" d="M683.6,49.6c0.5,0,2.1-0.2,2.5-0.4c0.7-0.3,0.9-0.8,0.9-1.5v-4.7c0-0.9-0.2-1.6-0.9-2.7c-1.1-2.1-3-5.7-4-7.4
			c-0.5-0.9-1.2-1.6-1.9-2.1c-0.5-0.3-1.4-0.5-1.9-0.5v-0.7h10.7v0.7c-1.1,0.1-3,0.3-3,1c0,0.4,2.4,4.9,4.7,9c1.3-2.2,4.8-8,4.8-8.6
			c0-0.9-1.7-1.3-3.1-1.4v-0.7h7.8v0.7c-0.5,0.1-1.3,0.4-1.8,0.6c-0.8,0.5-1.3,0.9-1.9,1.8c-0.9,1.3-3.2,5.1-4.5,7.4
			c-0.8,1.4-1,2.3-1,3.7v3.7c0,0.7,0.2,1.2,0.9,1.5c0.4,0.2,1.9,0.5,2.4,0.5v0.7h-10.8V49.6z"/>
	</g>
</g>
<g>
	<path d="M294.6,105c-9.4,0-15.8-6.5-15.8-16.6c0-9.8,7.2-17.3,16.8-17.3c2.6,0,5.8,1.2,7.2,2.6l1.4-2.4h2l0.2,11.8h-1.1
		c-1.7-5.5-5-10.5-11.1-10.5c-4.9,0-9.6,4.7-9.6,15.5c0,8.6,5.2,14.5,11.4,14.5c5.8,0,8.5-3,10.4-7.2l1.2,0.7
		C305.6,100.5,301.8,105,294.6,105z"/>
	<path d="M319.5,105c-5.7,0-10.8-4.3-10.8-11.3c0-6.8,4.4-11.5,11.1-11.5c6.7,0,10.9,4.8,10.9,11.2C330.7,99.6,326.7,105,319.5,105z
		 M319.8,83.2c-5,0-6.2,5.5-6.2,10c0,5.7,1.8,10.6,6.2,10.6c4.2,0,6.1-4.8,6.1-10.5C325.9,88.3,324.4,83.2,319.8,83.2z"/>
	<path d="M331.4,104.3v-1c0.9,0,1.4-0.1,2.1-0.3c0.9-0.3,1.3-1.1,1.3-2.1v-27c-0.1-1.1-0.5-2.2-1.3-2.7c-0.6-0.4-2.5-0.9-3.3-1v-0.9
		l8.6-0.5l0.3,0.3v31.5c0,1,0.4,1.8,1.3,2.2c0.7,0.3,1.2,0.5,2.1,0.6v1H331.4z"/>
	<path d="M343.8,104.3v-1c0.9,0,1.4-0.1,2.1-0.3c0.9-0.3,1.3-1.1,1.3-2.1v-27c-0.1-1.1-0.5-2.2-1.3-2.7c-0.6-0.4-2.5-0.9-3.3-1v-0.9
		l8.6-0.5l0.3,0.3v31.5c0,1,0.4,1.8,1.3,2.2c0.7,0.3,1.2,0.5,2.1,0.6v1H343.8z"/>
	<path d="M366.2,104.9c-7.2,0-10.5-5.2-10.5-11.5c0-5.7,3.7-11.2,10-11.2c6.5,0,8.9,4.3,8.9,9.2v0.4h-14.2v0.5
		c0,6.2,2,10.5,7.1,10.5c3.7,0,4.9-1.3,6.7-4.2l0.9,0.6C373.3,102.5,370.2,104.9,366.2,104.9z M365.6,83.2c-3,0-5.1,3-5.2,7.4
		l9.6-0.1C369.9,87.2,369.2,83.2,365.6,83.2z"/>
	<path d="M397.2,86.8c-1.6,0-2.1-1-2.1-3.1c-1.6,0-2.2,0.3-3,0.8v0.3c1.1,1.2,1.8,3.1,1.8,4.5c0,4.1-4.1,6.8-8.1,6.8h-2.8
		c-0.9,0.4-1.7,1-1.7,2c0,2.3,2.8,2.2,5.1,2.3c1.4,0,4.3,0.2,5.3,0.3c2.8,0.1,6.1,2.5,6.1,6.5c0,4.4-3.8,7.8-12,7.8
		c-7.5,0-10.4-2.2-10.4-5.8c0-2.7,2.5-4.9,7.5-5.1v-0.3c-1.9-0.5-5-1.5-5-4.2c0-2.3,2.7-3.2,4.2-3.9v-0.3c-3.3-1.3-5.4-3.5-5.4-6.3
		c0-4.4,3.8-7,8.5-7c3.3,0,5.9,1.4,6.5,1.4c1.8-1.1,2.8-1.4,4.8-1.4c1.1,0,2.2,1,2.2,2.3C399.2,85.8,398.5,86.8,397.2,86.8z
		 M391.9,104.9c-1-0.1-3.1-0.3-7.4-0.3c-3.4,0.7-4.7,2-4.7,5c0,1.9,1.9,4.3,7.2,4.3c4.6,0,7.3-1.9,7.3-5.6
		C394.3,107.2,394.1,105.7,391.9,104.9z M385.5,83.2c-3.1,0-3.9,2.8-3.9,5.9c0,3.4,1.6,6,4,6c2.8,0,4.1-2.8,4.1-5.8
		C389.6,86.1,388.5,83.2,385.5,83.2z"/>
	<path d="M409.1,104.9c-7.2,0-10.5-5.2-10.5-11.5c0-5.7,3.7-11.2,10-11.2c6.5,0,8.9,4.3,8.9,9.2v0.4h-14.2v0.5
		c0,6.2,2,10.5,7.1,10.5c3.7,0,4.9-1.3,6.7-4.2l0.9,0.6C416.3,102.5,413.1,104.9,409.1,104.9z M408.5,83.2c-3,0-5.1,3-5.2,7.4
		l9.6-0.1C412.8,87.2,412.1,83.2,408.5,83.2z"/>
	<path d="M439.4,105c-5.7,0-10.8-4.3-10.8-11.3c0-6.8,4.4-11.5,11.1-11.5c6.7,0,10.9,4.8,10.9,11.2C450.6,99.6,446.6,105,439.4,105z
		 M439.7,83.2c-5,0-6.2,5.5-6.2,10c0,5.7,1.8,10.6,6.2,10.6c4.2,0,6.1-4.8,6.1-10.5C445.8,88.3,444.3,83.2,439.7,83.2z"/>
	<path d="M467.9,75.4c-1.1,0-2.8-0.5-2.8-2.1c0-0.7,0.3-1.5,0.3-2.5c-0.2-0.6-0.6-0.9-1.1-0.9c-3,0-4.5,2.9-4.7,10.2
		c0,0.7,0,2.1,0,2.9h6v2h-6v15.8c0,1,0.4,1.8,1.3,2.1c0.7,0.3,2.2,0.5,3.1,0.6v1h-12.1v-1c0.9,0,1.4-0.1,2.1-0.3
		c0.9-0.3,1.3-1.1,1.3-2.1v-16h-4.9v-2h4.9v-1.5c0-4,0.9-7.3,3.2-9.8c2-2.1,4.6-2.9,7-2.9c3.6,0,5.1,2.1,5.1,4.2
		C470.4,73.8,469.5,75.4,467.9,75.4z"/>
</g>
<rect x="263.3" y="29" class="st0" width="1.6" height="256.1"/>
<g>
	<path class="st0" d="M226.5,141.7c0.6-2.2,0.6-4.4,0.5-6.8C230.7,135.7,230.5,141.4,226.5,141.7 M201.8,182c0,0-0.7,4.1-3.1,2.9
		c-2.4-1.2-2.9-4.8-2.9-4.8S198.5,181.3,201.8,182 M219.5,188.6c-2.7,4.4-10-0.5-10-0.5c2.1-1.6,3.5-4.5,3.9-8
		C217.1,180.3,222.4,183.9,219.5,188.6 M189.3,64.8c-3.1-1.2-2.2-10.6-2.2-10.6c0.7,4.3,5.8,7.2,10.2,4.7
		C197.3,58.9,192.9,66.1,189.3,64.8 M182.4,138c-2.3,0.4-5.1-0.5-6.8-1.8c-5.5-4.2-7.7-15.5-8.1-24.1c2.3,5,6.1,12.8,12.8,10.8
		c2.3-0.7,5.1-3.8,5.1-3.8C187.5,124.8,189.2,136.7,182.4,138 M219.4,47.8c2.2,0.1,4.4,1.4,4.4,3.2c0,2.8-2.7,3.4-4.7,3.2
		c-2.7-0.3-4-1.9-4-3.5C215.2,48.9,217.2,47.7,219.4,47.8 M189.8,36.3c3.3-7.8,11.8-9.1,11.8-9.1C195,27,174.1,30.3,172.2,51
		c-0.6,6.8,1.9,12.6,4.7,17.3c-3.5-2.7-7.8-7.2-8.4-13.4c-0.5-5,2.1-12.6,2.1-12.6c-5,5.9-10.4,13.3-9.2,23.4
		c1.1,9.4,7.3,15.7,11.5,21c-3.1-1.5-5-3.1-7.9-6c0.9,11.2,4.4,19.9,12.3,24.1c-10.1-1-12.1-8-14.9-16c-2-5.5-5.3-8.7-8.4-12.1
		c4.7,1,7.4,4,9.7,7.3c-1.5-9.7-8.5-13.9-18.4-15.2c4.2-3.8,11.1-0.1,14.3,1.8c0,0-2-4-3.8-5.9c-4.8-5.2-15.4-4-21.8-1.8
		c2.3-4,8.5-7.1,13.9-5.5c-3.3-2.9-7.4-4.9-12.6-5.2c-8.9-0.6-16.3,4.3-20.7,7.6c1.1-5.8,5.7-7.9,10-10.5
		c-14.8-2.5-22.4,6.8-27.3,16c-0.5-5.7,4.5-12,4.5-12c-18.2,7.5-15.5,28-15.5,28c-3.3-2-3.2-9.6-2.1-13.1c0,0-3.7,5.2-3.8,12.7
		c-0.1,7.6,5.2,15.6,5.2,15.6c-5.5-0.8-8.9-11.7-8.9-11.7C73.9,100,87,112.4,87,112.4c-5.9-0.6-11-8-11-8
		c2.1,15.2,15.5,23.3,15.5,23.3c-4.2,0.9-10.3-3.3-10.3-3.3c5.1,11.7,12.7,17.2,12.7,17.2c-4.7,0.2-9.6-5.4-9.6-5.4
		c-0.4,5.4,2.6,12.6,2.6,12.6c-4.8-1.7-6.2-8.5-6.2-8.5c-3.9,5.5-3.1,13.5-3.1,13.5c-4.6-3.1-4.3-9.5-4.3-9.5
		c-4.5,2.3-7.1,11.2-7.1,11.2c-2.3-4.8,0.1-10.5,0.1-10.5c-6.3,1.6-10.2,9-10.2,9c-0.4-4.5,2.5-9.9,2.5-9.9
		c-4.9,0.2-9.1,7.1-9.1,7.1c-0.9-4.6,3.5-9.7,3.5-9.7c-5.4-0.6-10.1,5.2-10.1,5.2c-0.6-5.3,4.6-9.3,4.6-9.3
		c-5.8-1.4-10.1,3.7-10.1,3.7c-0.8-5.6,5.3-9.5,5.3-9.5c-4.6-2-9.6,2.1-9.6,2.1c-0.6-5.7,5.8-9,5.8-9c-3.9-2.7-9-0.1-9-0.1
		c0.8-4.7,6.7-6,6.7-6c-3.3-3.8-8.3-3.4-8.3-3.4c1.7-4.1,7.1-3.4,7.1-3.4c-2.6-3.7-7.4-5-7.4-5c3-2.5,7.2-0.8,7.2-0.8
		c-1.2-4.1-6.1-6.5-6.1-6.5c3.8-1.3,7.5,1.3,7.5,1.3c-0.5-3.7-4.4-7.2-4.4-7.2c4.4,0.2,7.5,3.4,7.5,3.4c0-3.2-2.2-7.1-2.2-7.1
		c3.6,1.1,6.8,4.7,6.8,4.7c0.4-3-0.5-4.8-0.5-4.8c6,2.2,9.7,6.8,12.9,11.8c-1.6-9.3-7.5-16-16.8-16.8c-16.2-1.4-26.5,17-26.5,30.5
		c0,15.7,5.4,26.2,12.4,36.3c8.1,11.8,22.2,20.9,35.4,23.6c-4.2,1.4-8.1,4.7-8.1,8.6c6.8,0.5,12.5,3.6,15.4,7.3h24
		c5.8,0,11.2-0.1,13-0.5c4.4-1,6.5-10.9,11.8-10.8c5.3,0.2,3.7,8.7-0.8,8.9c-1.5,0.1-2.2-0.6-3.4-1c4.8,11.4,18.9-1.5,12.3-9.4
		c7.7,0.3,7.2,10.2,1.8,11.3c8.4,0.8,10.8-7.5,7-13.6c-3.9-6-11.5-4.9-17.7-2c-6.1,2.9-11.7,5.2-15.8,5.7c-3.3,0.4-6.5,0.2-8.7-1.1
		c-6.3-3.7,4.9-9.9,7.6-11.5c9.9-6,20.5-13.2,21.5-27.5c0.8-10.7-3.2-16.2-6.6-22.8c-2.7-5.4-5.6-10.8-6-17.8
		c-0.6-9.5,6.4-16.6,14.9-16.3c11.9,0.5,18.1,10,18.9,22c0.3,4.8-0.7,10.4-1.1,15.2c-1.3,19.9,8.2,30.1,18.9,39.3
		c9.8,8.5,19.4,14,31.5,19.1c0.8,7.7,5.5,16.1,14.7,12.1c4.8,8.2,22.4,6.7,19.9-5.2c-1.2-5.5-9.3-6.4-8.8-12.7
		c0.3-3,3.7-4.7,6.9-3.6c3.4,1.2,5,6.3,4.7,10c5.3-8.8-0.1-21.7-11-19.1c-5.5,1.3-11,11-11,11c-7-3.8-13.8-7.6-13.8-7.6
		c16.2-0.8,26.4-7.9,32.4-18.9c7.8,1.8,13.1-3.6,11-10c0,0,6.8,2.1,7.6,7.7c0.8,5.6-6.7,6.9-10.9,4.1c0,0,3.6,8.5,10.4,6.9
		c6.9-1.7,6.1-8.9,4.6-11.8c-1.5-2.9-7.7-8.4-6.1-12.1c1.6-3.7,9-1.2,8,8.3c5.4-7.6,0.7-19.7-8.1-19.7c-6.5,0-9.1,5.5-10.8,11.3
		c0,0-2.1-0.8-4.5-0.3c-1.3-9.2-7.2-15.2-16.5-18.9c-8.4-3.3-16.5-9-17.3-18.1c-0.4-4.3,1-7.8,4.2-9.4c8.4-4.3,14,4.9,15.5,11
		c-0.1-7.1,2.6-10.6,5.8-14.2c-2.6-4.3-7.5-7.9-14.2-7.1c-4.6,0.6-9,3.1-9,3.1c2.2-4.9,5.9-13.7,14.3-14.1
		c6.8-0.3,10.1,5.6,12.1,11.5c1.1-11.1,7.1-18.8,12.6-24.6c-6.5,3.8-9.8-4.2-16-4.2c-8.9,0-13.2,9.8-20.7,10.8
		c-3.2,0.4-5.5-1.9-6.8-2.9C188.4,50.2,186.5,44.1,189.8,36.3"/>
</g>
<g>
	<path d="M307.3,193c-17.6,0-29.6-12.1-29.6-31.1c0-18.4,13.5-32.4,31.4-32.4c4.9,0,10.8,2.3,13.5,4.8l2.7-4.6h3.7l0.4,22.1h-2.1
		c-3.2-10.4-9.3-19.7-20.8-19.7c-9.1,0-17.9,8.8-17.9,29.1c0,16.2,9.7,27.1,21.4,27.1c10.9,0,16-5.6,19.5-13.4l2.3,1.3
		C328.1,184.5,320.9,193,307.3,193z"/>
	<path d="M354.1,192.9c-10.7,0-20.2-8.1-20.2-21.3c0-12.7,8.3-21.5,20.8-21.5c12.5,0,20.4,9,20.4,20.9
		C375.1,182.9,367.6,192.9,354.1,192.9z M354.7,152.2c-9.3,0-11.7,10.3-11.7,18.7c0,10.6,3.3,19.9,11.7,19.9c7.9,0,11.4-9,11.4-19.7
		C366.1,161.8,363.3,152.2,354.7,152.2z"/>
	<path d="M429.5,191.7v-1.8c1.6-0.1,2.6-0.3,3.8-0.6c1.7-0.5,2.4-2.1,2.4-4v-21.6c0-6.2-3.4-9.5-7.2-9.5c-6.5,0-9.8,4.3-10.9,6.2
		v24.5c0,2,0.7,3.4,2.3,4.1c1.3,0.5,2.3,0.9,3.9,1v1.8h-20.5v-1.8c1.6-0.1,2.4-0.3,3.7-0.6c1.7-0.5,2.4-2.1,2.4-4v-21.6
		c0-6.2-3.4-9.5-7.2-9.5c-6.5,0-9.8,4.4-10.9,6.3c0,5,0,24.3,0,24.3c0,2,0.8,3.4,2.4,4.1c1.3,0.6,2.4,1,4,1.1v1.8h-20.9v-1.8
		c1.6-0.1,2.7-0.3,3.9-0.6c1.7-0.5,2.4-2.1,2.4-4v-25.8c-0.2-1.9-1-3.4-2.4-4.4c-1.1-0.7-2.9-1.5-4.6-1.6v-1.7l14.4-1l0.6,0.6v6.2
		h0.3c3.5-3.4,6.7-7.4,14.4-7.4c5.5,0,9.5,3,11.5,7.7c3.7-3.5,7.1-7.7,14.8-7.7c8.3,0,11.8,6.2,11.8,14.3v20.4c0,2,0.7,3.4,2.3,4.1
		c1.2,0.5,2.6,0.9,4.2,1v1.8H429.5z"/>
	<path d="M476.1,192.8c-5.2,0-8.2-1.3-10.3-2.8h-0.4v14.6c0,2,0.9,3.6,2.5,4.2c1.3,0.5,4.6,1.3,6.2,1.3v1.8h-24v-1.8
		c1.6-0.1,3.7-0.4,4.9-0.8c1.7-0.5,2.3-2.2,2.3-4.2v-45.6c-0.2-1.9-0.9-3.5-2.3-4.5c-1.1-0.7-3.3-1.4-4.9-1.5v-1.7l14.6-1l0.6,0.5
		v4.6l0.4,0.1c2.1-2.2,6.4-5.8,12.1-5.8c10.3,0,18.6,8.6,18.6,21.7C496.4,184.1,486.6,192.8,476.1,192.8z M474.8,153.8
		c-4.3,0-7.1,2-9.3,4.5v25.4c1,2.9,4,7.1,9.9,7.1c6.8,0,11.9-6.9,11.9-19.1C487.3,162.8,483.8,153.8,474.8,153.8z"/>
	<path d="M531.4,191.9l-0.6-0.6v-5.4h-0.3c-3.4,3.4-6.6,7-14.3,7c-8.3,0-11.6-6.2-11.6-14.6v-18.7c-0.2-1.9-0.9-3.5-2.3-4.5
		c-1.1-0.7-2.9-1.3-4.5-1.4v-1.7l14.4-1.1l0.6,0.6v28.4c0,6.2,3.2,9.4,7.1,9.4c6.5,0,9.6-4.2,10.8-6.1v-23.9
		c-0.2-1.9-0.9-3.5-2.3-4.5c-1.1-0.7-3.5-1.1-5.8-1.2v-1.7l15.6-1.1l0.6,0.6v32.3c0.2,1.9,0.9,3.3,2.3,4.3c1.1,0.7,2.7,1.1,4.3,1.2
		v1.7L531.4,191.9z"/>
	<path d="M563.9,192.6c-7.3,0-10.8-4.4-10.8-12.3v-24.9h-8.6v-3.8h8.8v-13.8h7.8v13.8h12.2v3.8h-12.1v23.8c0,5.1,1.4,8.4,6.9,8.4
		c4.6,0,4.9-3.6,5.4-7h2C574.7,187,570.5,192.6,563.9,192.6z"/>
	<path d="M577.5,191.7v-1.8c1.6-0.1,2.7-0.3,3.9-0.6c1.7-0.5,2.4-2.2,2.4-4v-25.6c-0.2-1.9-1-3.5-2.4-4.5c-1.1-0.7-3.7-1.6-5.3-1.7
		v-1.7l15.2-1l0.6,0.6v33.3c0,1.9,0.8,3.4,2.4,4.1c1.4,0.6,2.8,1,3.9,1.1v1.8H577.5z M587.2,138.7c-2.9,0-5.4-2.5-5.4-5.4
		c0-3,2.5-5.6,5.4-5.6c3.3,0,5.6,2.4,5.6,5.3C592.8,136.1,590.4,138.7,587.2,138.7z"/>
	<path d="M627.3,191.7v-1.8c1.6-0.1,2.9-0.3,4.2-0.6c1.7-0.5,2.4-2.1,2.4-4v-21.5c0-6.2-3.6-9.6-7.4-9.6c-6.5,0-10.2,4.2-11.2,6.3
		v24.4c0,2,0.8,3.3,2.4,4c1.3,0.6,2.7,1,4.2,1.1v1.8h-21.1v-1.8c1.6-0.1,2.7-0.3,3.9-0.6c1.7-0.5,2.4-2.1,2.4-4v-25.6
		c-0.2-1.9-1-3.8-2.4-4.7c-1.1-0.7-2.8-1.3-4.4-1.4v-1.7l14.3-1l0.6,0.6v6.1h0.2c3.4-3.3,6.8-7.3,14.5-7.3c8.3,0,12.1,5.6,12.1,14.1
		v20.6c0,2,0.7,3.3,2.3,4c1.3,0.5,2.3,0.9,3.9,1v1.8H627.3z"/>
	<path d="M689,158.8c-2.9,0-3.8-2-3.8-5.7c-2.9,0-4.2,0.5-5.5,1.5v0.6c2.1,2.3,3.4,5.8,3.4,8.5c0,7.8-7.8,12.7-15.1,12.7h-5.2
		c-1.6,0.8-3.1,1.9-3.1,3.8c0,4.4,5.2,4.2,9.6,4.4c2.6,0.1,8.1,0.4,10,0.5c5.3,0.3,11.4,4.6,11.4,12.1c0,8.2-7.1,14.6-22.4,14.6
		c-14.1,0-19.5-4.1-19.5-10.9c0-5,4.6-9.2,14.1-9.5v-0.6c-3.5-1-9.4-2.9-9.4-7.9c0-4.4,5-6.1,7.9-7.2v-0.5
		c-6.3-2.5-10.1-6.6-10.1-11.9c0-8.2,7.1-13.1,16-13.1c6.2,0,11.1,2.7,12.2,2.7c3.3-2.1,5.2-2.7,9-2.7c2.1,0,4.2,1.9,4.2,4.3
		C692.7,157,691.4,158.8,689,158.8z M678.9,192.8c-2-0.3-5.8-0.6-13.8-0.6c-6.3,1.3-8.8,3.8-8.8,9.3c0,3.6,3.5,8,13.4,8
		c8.7,0,13.8-3.5,13.8-10.4C683.4,197,683.1,194.2,678.9,192.8z M667,152.1c-5.7,0-7.3,5.2-7.3,11.1c0,6.3,2.9,11.2,7.4,11.2
		c5.3,0,7.6-5.2,7.6-10.9C674.7,157.6,672.6,152.1,667,152.1z"/>
	<path d="M760.8,159.5c-2.6,2.9-5.6,11.6-11.2,18.3c2.4,3,7.1,7.7,9.3,9c3.1,1.9,8,2.8,11.6,2.9v2h-20.9l-6.3-7.7
		c-4.3,4.4-9.8,9.1-17.1,9.1c-8.4,0-17.1-4.5-17.1-14.7c0-8.5,5-13.5,15-19.8c-4.6-7.1-6.4-10.9-6.4-15.4c0-8.1,7.2-13.7,15.4-13.7
		c7.9,0,11.3,5.9,11.3,12c0,5.3-3.8,10.4-11,14.8c5.4,8,9.2,12.8,14.7,19.6c3.8-5.4,7.2-12.1,7.2-16.2c0-2.1-3.4-3.6-8-4.6v-1.9H773
		v1.9C767.9,155.6,763.7,156.2,760.8,159.5z M725.6,160.3c-5.3,3.3-7.1,8.3-7.1,14.3c0,7.3,4.3,12.9,11.7,12.9
		c4.5,0,8.7-1.9,11.7-5.4C736.8,175.4,729.4,166.2,725.6,160.3z M733.3,132.2c-5.9,0-7,5.8-7,8.4c0,3.8,1.6,7.9,5.8,13.7
		c5.7-3.5,8.1-7.6,8.1-13.2C740.3,135.3,737.3,132.2,733.3,132.2z"/>
	<path d="M278.6,285v-2c1.6-0.1,5.4-0.4,6.5-0.9c2.1-0.8,2.8-2.3,2.8-4.3v-46c0-2-0.5-3.4-2.8-4.3c-1.6-0.6-4.9-1.5-6.5-1.6v-2h28v2
		c-1.6,0.1-4.9,0.6-6.5,1.2c-2.2,0.7-2.8,2.3-2.8,4.3v46c0,2,0.7,3.4,2.8,4.3c1.1,0.4,4.9,1.2,6.5,1.3v2H278.6z"/>
	<path d="M335.3,285v-1.8c1.6-0.1,2.9-0.3,4.2-0.6c1.7-0.5,2.4-2.1,2.4-4V257c0-6.2-3.6-9.6-7.4-9.6c-6.5,0-10.2,4.2-11.2,6.3v24.4
		c0,2,0.8,3.3,2.4,4c1.3,0.6,2.7,1,4.2,1.1v1.8h-21.1v-1.8c1.6-0.1,2.7-0.3,3.9-0.6c1.7-0.5,2.4-2.1,2.4-4v-25.6
		c-0.2-1.9-1-3.7-2.4-4.7c-1.1-0.7-2.8-1.3-4.4-1.4v-1.7l14.3-1l0.6,0.6v6.1h0.2c3.4-3.3,6.8-7.3,14.5-7.3c8.3,0,12.1,5.6,12.1,14.1
		v20.6c0,2,0.7,3.3,2.3,4c1.3,0.5,2.3,0.9,3.9,1v1.8H335.3z"/>
	<path d="M389.1,230.8c-2.1,0-5.2-1-5.2-4c0-1.3,0.5-2.8,0.5-4.7c-0.4-1.1-1.2-1.7-2.1-1.7c-5.6,0-8.4,5.4-8.8,19
		c0,1.3-0.1,3.9-0.1,5.4h11.3v3.8h-11.3v29.6c0,1.9,0.8,3.4,2.4,4c1.3,0.5,4.2,1,5.8,1.1v1.8H359v-1.8c1.6-0.1,2.7-0.3,3.9-0.6
		c1.7-0.5,2.4-2.1,2.4-4v-30h-9.1v-3.8h9.1V242c0-7.4,1.7-13.7,6.1-18.3c3.7-3.9,8.6-5.4,13.1-5.4c6.7,0,9.5,4,9.5,7.9
		C394,227.9,392.3,230.8,389.1,230.8z"/>
	<path d="M404.9,286.2c-10.7,0-20.2-8.1-20.2-21.3c0-12.7,8.3-21.5,20.8-21.5c12.5,0,20.4,9,20.4,20.9
		C425.9,276.2,418.4,286.2,404.9,286.2z M405.5,245.5c-9.3,0-11.7,10.3-11.7,18.7c0,10.6,3.3,19.9,11.7,19.9c7.9,0,11.4-9,11.4-19.7
		C416.9,255.1,414.1,245.5,405.5,245.5z"/>
	<path d="M456.3,254.7c-2.9,0-4.8-1.3-4.8-4.3c0-0.9,0.6-1.6,0.6-2.8c-4.6,0-7.9,3.8-8.9,5.8v24.6c0,2,0.8,3.4,2.4,4
		c1.5,0.6,4.1,1,5.8,1.1v1.8h-22.7v-1.8c1.6-0.1,2.7-0.3,3.9-0.6c1.7-0.5,2.4-2.1,2.4-4v-25.6c-0.2-1.9-1-3.7-2.4-4.7
		c-1.1-0.7-2.8-1.3-4.4-1.4v-1.7l14.3-1l0.6,0.6v6.1h0.2c3.8-4.9,8.3-7.1,12.1-7.1c2.8,0,5.6,2.5,5.6,5.4
		C461,252.2,459.3,254.7,456.3,254.7z"/>
	<path d="M515.8,285v-1.8c1.6-0.1,2.6-0.3,3.8-0.6c1.7-0.5,2.4-2.1,2.4-4V257c0-6.2-3.4-9.5-7.2-9.5c-6.5,0-9.8,4.3-10.9,6.2v24.5
		c0,2,0.7,3.4,2.3,4.1c1.3,0.5,2.3,0.9,3.9,1v1.8h-20.5v-1.8c1.6-0.1,2.4-0.3,3.7-0.6c1.7-0.5,2.4-2.1,2.4-4V257
		c0-6.2-3.4-9.5-7.2-9.5c-6.5,0-9.8,4.4-10.9,6.3c0,5,0,24.3,0,24.3c0,2,0.8,3.4,2.4,4.1c1.3,0.6,2.4,1,4,1.1v1.8h-20.9v-1.8
		c1.6-0.1,2.7-0.3,3.9-0.6c1.7-0.5,2.4-2.1,2.4-4v-25.8c-0.2-1.9-1-3.4-2.4-4.4c-1.1-0.7-2.9-1.5-4.6-1.6v-1.7l14.4-1l0.6,0.6v6.2
		h0.3c3.5-3.4,6.7-7.4,14.4-7.4c5.5,0,9.5,3,11.5,7.7c3.7-3.5,7.1-7.7,14.8-7.7c8.3,0,11.8,6.2,11.8,14.3v20.4c0,2,0.7,3.4,2.3,4.1
		c1.2,0.5,2.6,0.9,4.2,1v1.8H515.8z"/>
	<path d="M570.2,285.9c-4.2,0-6.4-1.9-7.9-6h-0.3c-3.2,3.7-7.9,6.2-13.2,6.2c-6.2,0-10.4-3.7-10.4-9.5c0-7.3,4.3-9.8,8.7-11.5
		c5.1-2,11.3-3.5,15-5.6v-5c0-1.6-0.3-9-7.7-9c-3.4,0-4.6,2.1-5.4,3c0,1.3,0.8,3.3,0.8,5.3c0,1.9-2,3.8-5.2,3.8c-2.9,0-4-2.3-4-4.6
		c0-5.4,7.6-9.5,14.4-9.5c8.8,0,15.4,1.3,15.4,13.2c0,7.9-0.4,17.1-0.4,20c0,1.3,1.3,4.6,4.2,4.6c2.9,0,3.2-3.5,3.5-6.9h2
		C579.1,282.7,575.7,285.9,570.2,285.9z M547.2,275.3c0,4.9,2.2,7.1,6.1,7.1c4.6,0,6.6-2.1,8.8-4.7l0.4-15.6
		C553.4,264.8,547.2,267.3,547.2,275.3z"/>
	<path d="M595.2,285.9c-7.3,0-10.8-4.4-10.8-12.3v-24.9h-8.6v-3.8h8.8V231h7.8v13.8h12.2v3.8h-12.1v23.8c0,5.1,1.4,8.4,6.9,8.4
		c4.6,0,4.9-3.6,5.4-7h2C606,280.4,601.8,285.9,595.2,285.9z"/>
	<path d="M608.9,285v-1.8c1.6-0.1,2.7-0.3,3.9-0.6c1.7-0.5,2.4-2.2,2.4-4v-25.6c-0.2-1.9-1-3.5-2.4-4.5c-1.1-0.7-3.7-1.6-5.3-1.7
		v-1.7l15.2-1l0.6,0.6V278c0,1.9,0.8,3.4,2.4,4.1c1.4,0.6,2.8,1,3.9,1.1v1.8H608.9z M618.5,232c-2.9,0-5.4-2.5-5.4-5.4
		c0-3,2.5-5.6,5.4-5.6c3.3,0,5.6,2.4,5.6,5.3C624.1,229.4,621.7,232,618.5,232z"/>
	<path d="M649.9,286.1c-12.9,0-19.4-9.1-19.4-21.4c0-11,7.6-21.2,19.8-21.2c9.2,0,13.8,4.9,13.8,10.4c0,2.9-1.5,5-4.6,5
		c-1.8,0-5-1-5-4.5c0-3.8,1.2-3.8,1.2-5.5c-0.4-2.6-2.2-3.2-5.4-3.2c-5.3,0-10.8,4.7-10.8,18.2c0,10.4,4.6,18.3,12.5,18.3
		c6.3,0,9.7-2.8,12.7-7.9l1.7,1.2C663.2,281.3,657,286.1,649.9,286.1z"/>
	<path d="M683.1,286.2c-4.4,0-9.1-2.1-10.6-3.6l-0.9,2.8h-2.9l-0.4-13.8h1.9c1,4.4,6.3,12.5,13.5,12.5c6.3,0,8.4-3.3,8.4-7.7
		c0-4.6-3.5-6.5-10.4-8.6c-5.7-1.7-12.1-5-12.1-12.7c0-6.6,5.1-11.7,13.4-11.7c3.5,0,7.1,0.8,9.3,2.3l0.7-2.4h2.8l0.6,12.3h-1.9
		c-0.9-5.1-5.4-10.2-11.8-10.2c-5.4,0-7,3.1-7,6.4c0,5.1,3,6.1,10.4,8.5c7.3,2.4,12.1,5.7,12.1,13
		C698.1,281.4,691.5,286.2,683.1,286.2z"/>
</g>
</svg>
